HIERARCHY
ROOT Hips
{
	OFFSET 0.000000 83.214638 0.000000
	CHANNELS 6 Xposition Yposition Zposition Xrotation Yrotation Zrotation
	JOINT Pelvis
	{
		OFFSET 0.000000 0.000000 0.000000
		CHANNELS 3 Xrotation Yrotation Zrotation
		JOINT LeftUpLeg
		{
			OFFSET 8.479700 -4.795502 -0.379100
			CHANNELS 3 Xrotation Yrotation Zrotation
			JOINT LeftLeg
			{
				OFFSET 0.024144 -32.555107 0.112900
				CHANNELS 3 Xrotation Yrotation Zrotation
				JOINT LeftFoot
				{
					OFFSET -0.024144 -32.638630 -3.012600
					CHANNELS 3 Xrotation Yrotation Zrotation
					JOINT LeftToeBase
					{
						OFFSET 0.970200 -13.225400 11.864200
						CHANNELS 3 Xrotation Yrotation Zrotation
						End Site
						{
							OFFSET 0.000000 12.319262 0.000000
						}
					}
					JOINT LFootTongue
					{
						OFFSET 1.142400 -1.059800 6.665200
						CHANNELS 3 Xrotation Yrotation Zrotation
						End Site
						{
							OFFSET 0.000000 12.319262 0.000000
						}
					}
				}
				JOINT LeftPantLeg
				{
					OFFSET 0.918482 -16.533964 -2.284700
					CHANNELS 3 Xrotation Yrotation Zrotation
					End Site
					{
						OFFSET 0.350399 24.744368 0.000000
					}
				}
			}
		}
		JOINT RightUpLeg
		{
			OFFSET -8.479700 -4.795502 -0.379100
			CHANNELS 3 Xrotation Yrotation Zrotation
			JOINT RightLeg
			{
				OFFSET -0.023144 -32.555092 0.112900
				CHANNELS 3 Xrotation Yrotation Zrotation
				JOINT RightFoot
				{
					OFFSET 0.023144 -32.638641 -3.012700
					CHANNELS 3 Xrotation Yrotation Zrotation
					JOINT RightToeBase
					{
						OFFSET -0.970200 -13.225400 11.864200
						CHANNELS 3 Xrotation Yrotation Zrotation
						End Site
						{
							OFFSET 0.000000 12.319244 0.000000
						}
					}
					JOINT RFootTongue
					{
						OFFSET -1.142200 -1.059800 6.665200
						CHANNELS 3 Xrotation Yrotation Zrotation
						End Site
						{
							OFFSET 0.000000 12.319243 0.000000
						}
					}
				}
				JOINT RightPantLeg
				{
					OFFSET -0.919482 -16.533978 -2.284800
					CHANNELS 3 Xrotation Yrotation Zrotation
					End Site
					{
						OFFSET -0.350400 24.744419 0.000000
					}
				}
			}
		}
	}
	JOINT Spine
	{
		OFFSET 0.000000 7.722000 1.166200
		CHANNELS 3 Xrotation Yrotation Zrotation
		JOINT Spine1
		{
			OFFSET 0.000000 12.024101 0.248800
			CHANNELS 3 Xrotation Yrotation Zrotation
			JOINT Spine2
			{
				OFFSET 0.000000 11.502998 -0.491200
				CHANNELS 3 Xrotation Yrotation Zrotation
				JOINT Neck
				{
					OFFSET 0.000000 18.430702 -3.123100
					CHANNELS 3 Xrotation Yrotation Zrotation
					JOINT Head
					{
						OFFSET 0.000000 9.051102 1.034000
						CHANNELS 3 Xrotation Yrotation Zrotation
						JOINT HairB
						{
							OFFSET 0.208400 24.786102 24.822300
							CHANNELS 3 Xrotation Yrotation Zrotation
							End Site
							{
								OFFSET 0.000000 32.263779 0.000000
							}
						}
						JOINT HairA
						{
							OFFSET -7.081100 24.428299 23.196600
							CHANNELS 3 Xrotation Yrotation Zrotation
							End Site
							{
								OFFSET 0.000000 32.263779 0.000000
							}
						}
						JOINT Hat
						{
							OFFSET 16.728800 15.048294 -15.439601
							CHANNELS 3 Xrotation Yrotation Zrotation
							End Site
							{
								OFFSET 0.000000 32.263779 0.000000
							}
						}
					}
				}
				JOINT LeftShoulder
				{
					OFFSET 6.197800 13.665199 -4.064700
					CHANNELS 3 Xrotation Yrotation Zrotation
					JOINT LeftArm
					{
						OFFSET 7.778100 -0.187103 -1.709300
						CHANNELS 3 Xrotation Yrotation Zrotation
						JOINT LeftForeArm
						{
							OFFSET 22.049376 0.000000 0.000000
							CHANNELS 3 Xrotation Yrotation Zrotation
							JOINT LeftHand
							{
								OFFSET 23.009392 0.000000 0.000000
								CHANNELS 3 Xrotation Yrotation Zrotation
								JOINT LeftHandThumb1
								{
									OFFSET 3.507191 -2.063065 3.133727
									CHANNELS 3 Xrotation Yrotation Zrotation
									JOINT LeftHandThumb2
									{
										OFFSET 3.101337 -1.790558 1.790558
										CHANNELS 3 Xrotation Yrotation Zrotation
										JOINT LeftHandThumb3
										{
											OFFSET 3.058640 -1.765907 1.765906
											CHANNELS 3 Xrotation Yrotation Zrotation
											End Site
											{
												OFFSET -0.415260 3.926476 -0.049563
											}
										}
									}
								}
								JOINT LeftHandIndex1
								{
									OFFSET 11.334419 -0.901459 3.706815
									CHANNELS 3 Xrotation Yrotation Zrotation
									JOINT LeftHandIndex2
									{
										OFFSET 3.283112 0.000000 0.000000
										CHANNELS 3 Xrotation Yrotation Zrotation
										JOINT LeftHandIndex3
										{
											OFFSET 3.323853 0.000000 0.000000
											CHANNELS 3 Xrotation Yrotation Zrotation
											End Site
											{
												OFFSET -1.135597 3.097809 0.402452
											}
										}
									}
								}
								JOINT LeftHandMiddle1
								{
									OFFSET 11.335861 0.000000 0.000000
									CHANNELS 3 Xrotation Yrotation Zrotation
									JOINT LeftHandMiddle2
									{
										OFFSET 3.410492 0.000000 0.000000
										CHANNELS 3 Xrotation Yrotation Zrotation
										JOINT LeftHandMiddle3
										{
											OFFSET 3.312172 0.000000 0.000000
											CHANNELS 3 Xrotation Yrotation Zrotation
											End Site
											{
												OFFSET -1.150200 3.080154 0.400270
											}
										}
									}
								}
								JOINT LeftHandRing1
								{
									OFFSET 11.514786 -0.013176 -3.003090
									CHANNELS 3 Xrotation Yrotation Zrotation
									JOINT LeftHandRing2
									{
										OFFSET 3.053307 0.000000 0.000000
										CHANNELS 3 Xrotation Yrotation Zrotation
										JOINT LeftHandRing3
										{
											OFFSET 3.295807 0.000000 0.000000
											CHANNELS 3 Xrotation Yrotation Zrotation
											End Site
											{
												OFFSET -1.281006 3.013344 0.375733
											}
										}
									}
								}
								JOINT LeftHandPinky1
								{
									OFFSET 10.518692 -0.960396 -5.730441
									CHANNELS 3 Xrotation Yrotation Zrotation
									JOINT LeftHandPinky2
									{
										OFFSET 2.861649 0.000000 0.000000
										CHANNELS 3 Xrotation Yrotation Zrotation
										JOINT LeftHandPinky3
										{
											OFFSET 2.863380 0.000000 0.000000
											CHANNELS 3 Xrotation Yrotation Zrotation
											End Site
											{
												OFFSET -0.843597 2.711159 0.369971
											}
										}
									}
								}
							}
							JOINT LSleeve
							{
								OFFSET 6.676277 -0.344902 -1.011730
								CHANNELS 3 Xrotation Yrotation Zrotation
								End Site
								{
									OFFSET 0.000000 14.885353 0.000000
								}
							}
						}
					}
				}
				JOINT RightShoulder
				{
					OFFSET -6.197800 13.665199 -4.064700
					CHANNELS 3 Xrotation Yrotation Zrotation
					JOINT RightArm
					{
						OFFSET -7.778100 -0.187103 -1.709300
						CHANNELS 3 Xrotation Yrotation Zrotation
						JOINT RightForeArm
						{
							OFFSET -22.049376 0.000000 0.000000
							CHANNELS 3 Xrotation Yrotation Zrotation
							JOINT RightHand
							{
								OFFSET -23.009392 0.000000 0.000000
								CHANNELS 3 Xrotation Yrotation Zrotation
								JOINT RightHandThumb1
								{
									OFFSET -3.507191 -2.063065 3.133727
									CHANNELS 3 Xrotation Yrotation Zrotation
									JOINT RightHandThumb2
									{
										OFFSET -3.101337 -1.790558 1.790558
										CHANNELS 3 Xrotation Yrotation Zrotation
										JOINT RightHandThumb3
										{
											OFFSET -3.058640 -1.765907 1.765906
											CHANNELS 3 Xrotation Yrotation Zrotation
											End Site
											{
												OFFSET 0.415260 3.926476 -0.049563
											}
										}
									}
								}
								JOINT RightHandIndex1
								{
									OFFSET -11.334419 -0.901459 3.706815
									CHANNELS 3 Xrotation Yrotation Zrotation
									JOINT RightHandIndex2
									{
										OFFSET -3.283112 0.000000 0.000000
										CHANNELS 3 Xrotation Yrotation Zrotation
										JOINT RightHandIndex3
										{
											OFFSET -3.323853 0.000000 0.000000
											CHANNELS 3 Xrotation Yrotation Zrotation
											End Site
											{
												OFFSET 1.135597 3.097809 0.402452
											}
										}
									}
								}
								JOINT RightHandMiddle1
								{
									OFFSET -11.335861 0.000000 0.000000
									CHANNELS 3 Xrotation Yrotation Zrotation
									JOINT RightHandMiddle2
									{
										OFFSET -3.410492 0.000000 0.000000
										CHANNELS 3 Xrotation Yrotation Zrotation
										JOINT RightHandMiddle3
										{
											OFFSET -3.312172 0.000000 0.000000
											CHANNELS 3 Xrotation Yrotation Zrotation
											End Site
											{
												OFFSET 1.150200 3.080154 0.400270
											}
										}
									}
								}
								JOINT RightHandRing1
								{
									OFFSET -11.514786 -0.013176 -3.003090
									CHANNELS 3 Xrotation Yrotation Zrotation
									JOINT RightHandRing2
									{
										OFFSET -3.053307 0.000000 0.000000
										CHANNELS 3 Xrotation Yrotation Zrotation
										JOINT RightHandRing3
										{
											OFFSET -3.295807 0.000000 0.000000
											CHANNELS 3 Xrotation Yrotation Zrotation
											End Site
											{
												OFFSET 1.281006 3.013344 0.375733
											}
										}
									}
								}
								JOINT RightHandPinky1
								{
									OFFSET -10.518692 -0.960396 -5.730441
									CHANNELS 3 Xrotation Yrotation Zrotation
									JOINT RightHandPinky2
									{
										OFFSET -2.861649 0.000000 0.000000
										CHANNELS 3 Xrotation Yrotation Zrotation
										JOINT RightHandPinky3
										{
											OFFSET -2.863380 0.000000 0.000000
											CHANNELS 3 Xrotation Yrotation Zrotation
											End Site
											{
												OFFSET 0.843597 2.711159 0.369971
											}
										}
									}
								}
							}
							JOINT RSleeve
							{
								OFFSET -6.676277 -0.344902 -1.011730
								CHANNELS 3 Xrotation Yrotation Zrotation
								End Site
								{
									OFFSET 0.000000 14.885353 0.000000
								}
							}
						}
					}
				}
				JOINT Backpack
				{
					OFFSET 0.000000 -2.471497 36.677502
					CHANNELS 3 Xrotation Yrotation Zrotation
					End Site
					{
						OFFSET 0.000000 20.427315 0.000000
					}
				}
				JOINT Hood
				{
					OFFSET 0.000000 18.754097 -10.431000
					CHANNELS 3 Xrotation Yrotation Zrotation
					JOINT Hood1
					{
						OFFSET 0.000000 -5.011002 -7.685901
						CHANNELS 3 Xrotation Yrotation Zrotation
						End Site
						{
							OFFSET 0.000000 9.175140 0.000000
						}
					}
				}
				JOINT LHoodieString
				{
					OFFSET 5.250500 16.397697 3.089900
					CHANNELS 3 Xrotation Yrotation Zrotation
					JOINT LHoodieString1
					{
						OFFSET 0.257700 -6.364304 3.694600
						CHANNELS 3 Xrotation Yrotation Zrotation
						JOINT LHoodieString2
						{
							OFFSET 0.000000 -9.643799 2.679100
							CHANNELS 3 Xrotation Yrotation Zrotation
							End Site
							{
								OFFSET 0.000000 10.009018 0.000000
							}
						}
					}
				}
				JOINT RHoodieString
				{
					OFFSET -5.250500 16.397697 3.089900
					CHANNELS 3 Xrotation Yrotation Zrotation
					JOINT RHoodieString1
					{
						OFFSET -0.257700 -6.364304 3.694600
						CHANNELS 3 Xrotation Yrotation Zrotation
						JOINT RHoodieString2
						{
							OFFSET 0.000000 -9.643799 2.679100
							CHANNELS 3 Xrotation Yrotation Zrotation
							End Site
							{
								OFFSET 0.000000 10.009018 0.000000
							}
						}
					}
				}
			}
			JOINT LBackpack_Strap
			{
				OFFSET 15.223200 -7.719803 -6.610900
				CHANNELS 3 Xrotation Yrotation Zrotation
				End Site
				{
					OFFSET 0.000000 16.040596 0.000000
				}
			}
			JOINT RBackpack_Strap
			{
				OFFSET -15.223000 -7.719803 -6.610900
				CHANNELS 3 Xrotation Yrotation Zrotation
				End Site
				{
					OFFSET 0.000000 16.040596 0.000000
				}
			}
		}
	}
	JOINT BoyFacialAnim_Joint
	{
		OFFSET 1.000000 -82.208099 -1.550900
		CHANNELS 3 Xrotation Yrotation Zrotation
		End Site
		{
			OFFSET 0.000000 30.012791 0.000000
		}
	}
}
MOTION
Frames: 4
Frame Time: 0.016667
-0.271840 70.610153 0.107374 -5.398751 -46.239377 -0.142892 0.000000 -0.000000 0.000000 -32.843508 7.601282 17.499493 59.220424 -6.566075 4.270678 -23.771615 -8.053182 -14.613687 -0.000000 -0.000001 0.000000 -0.000000 -0.000001 -0.000000 -0.000003 0.000000 -0.000003 -25.065152 -10.545500 -28.270283 58.419940 -9.124236 -7.671500 -25.367440 -6.319598 22.025427 -0.000000 0.000000 0.000000 -0.000000 0.000000 0.000000 -0.000002 0.000000 0.000003 9.464570 7.182602 -1.715465 2.187715 0.989904 -0.915630 2.202831 0.982770 -0.894152 0.084652 13.220557 4.538679 8.920927 20.138147 -4.130237 0.000000 0.000000 -0.000001 0.000000 0.000000 -0.000001 0.000000 0.000000 -0.000001 1.117176 3.546347 -8.633310 -53.487010 4.935498 -51.503004 0.000261 -106.358087 0.000265 1.988600 -7.706147 -15.869258 -6.141212 -11.690804 -6.761699 9.914136 42.595515 3.409857 0.000002 -0.000001 0.000002 0.255319 3.378226 -45.814348 5.654100 5.847768 -88.067462 -0.000002 -0.000000 -0.000005 -0.461469 3.841591 -39.722686 6.450751 5.820352 -95.892857 -0.000001 0.000001 -0.000001 0.469727 4.966823 -39.799444 8.181041 5.368623 -113.502991 0.000001 0.000001 -0.000000 -3.762421 9.063689 -45.253821 5.342544 5.829018 -85.005324 -0.000002 0.000001 -0.000002 -0.000000 0.000000 -0.000001 3.036128 13.027204 -5.371408 -48.713715 27.172813 83.457077 0.000393 105.988266 -0.000378 -8.345372 17.548113 8.775689 -7.341093 13.749661 7.412330 9.855783 -44.489089 -3.903252 0.000003 -0.000001 0.000002 -0.124371 -2.384797 45.108861 4.500603 -4.654555 88.071171 0.000001 0.000000 0.000002 -0.761620 -2.932907 39.031058 5.133877 -4.632758 95.881629 -0.000002 0.000001 0.000003 0.154765 -4.068815 39.122668 6.509723 -4.273604 113.462877 -0.000000 0.000001 0.000001 -4.198872 -8.025512 44.637769 4.252921 -4.639646 85.014811 -0.000000 0.000000 -0.000002 0.000000 -0.000001 0.000001 -0.000000 -0.000002 0.000000 -0.000000 -0.000002 0.000000 -0.000000 -0.000002 0.000000 -0.000000 -0.000002 0.000000 -0.000000 -0.000002 0.000000 -0.000000 0.000002 -0.000000 -0.000000 -0.000002 0.000000 -0.000000 -0.000002 0.000000 -0.000000 0.000002 -0.000000 -0.000000 0.000002 -0.000000 -0.000000 0.000002 -0.000000 0.000000 -0.000000 0.000000 
-0.156922 70.712090 0.005131 -5.728021 -46.418007 -0.145193 0.000000 0.000001 0.000001 -32.418670 7.760346 17.157391 58.773163 -6.292968 4.302883 -23.484332 -8.036249 -14.716472 -0.000000 -0.000002 0.000000 -0.000000 -0.000002 -0.000000 0.000003 0.000004 -0.000003 -25.027449 -10.350491 -28.464402 58.298902 -9.032526 -7.658126 -25.171325 -6.229389 21.900100 -0.000000 0.000001 0.000000 -0.000000 0.000001 0.000000 0.000001 -0.000000 -0.000003 9.278373 7.284357 -1.715271 2.640258 1.191267 -1.060358 2.654105 1.184965 -1.039334 0.357705 12.542821 4.092541 8.127879 19.984269 -4.225178 0.000000 -0.000000 -0.000000 0.000000 -0.000000 -0.000000 0.000000 -0.000000 -0.000000 0.981717 3.207213 -8.086435 -52.083512 4.488228 -52.459671 0.000046 -105.430766 0.000051 1.015804 -5.582484 -15.643285 -6.141213 -11.690807 -6.761699 9.914137 42.595508 3.409870 0.000000 -0.000002 -0.000000 0.255317 3.378227 -45.814341 5.654098 5.847770 -88.067469 0.000001 0.000001 -0.000005 -0.461468 3.841589 -39.722686 6.450750 5.820352 -95.892864 -0.000001 0.000000 0.000002 0.469725 4.966823 -39.799437 8.181039 5.368627 -113.502998 -0.000001 0.000003 0.000000 -3.762421 9.063687 -45.253821 5.342542 5.829019 -85.005324 -0.000001 0.000001 -0.000000 0.000000 0.000001 0.000002 3.469380 13.680585 -5.027492 -48.559216 27.223990 81.465708 -0.000110 106.431020 0.000090 -8.957046 17.278915 9.150936 -7.341091 13.749663 7.412334 9.855798 -44.489089 -3.903253 -0.000003 0.000002 0.000000 -0.124368 -2.384797 45.108864 4.500597 -4.654556 88.071171 -0.000001 0.000002 0.000000 -0.761619 -2.932908 39.031061 5.133878 -4.632756 95.881635 -0.000001 -0.000000 -0.000000 0.154766 -4.068814 39.122668 6.509722 -4.273601 113.462877 -0.000002 0.000000 0.000001 -4.198869 -8.025512 44.637769 4.252919 -4.639646 85.014805 -0.000001 -0.000002 0.000003 -0.000000 0.000001 0.000002 -0.000000 0.000005 -0.000000 -0.000000 0.000005 -0.000000 -0.000000 0.000005 -0.000000 -0.000000 0.000005 -0.000000 -0.000000 0.000005 -0.000000 -0.000000 -0.000002 0.000000 -0.000000 0.000005 -0.000000 -0.000000 0.000005 -0.000000 -0.000000 -0.000002 0.000000 -0.000000 -0.000001 0.000000 -0.000000 -0.000001 0.000000 0.000000 0.000001 0.000001 
-0.027943 70.816002 -0.085647 -5.978117 -46.634267 -0.014255 -0.000000 -0.000001 0.000000 -31.978686 7.859156 16.693151 58.283930 -5.878360 4.271594 -23.190939 -8.021357 -14.844265 -0.000000 0.000002 0.000000 -0.000000 0.000002 -0.000000 -0.000002 -0.000002 0.000002 -25.051093 -10.036304 -28.713176 58.184230 -8.967434 -7.639276 -24.949511 -6.148116 21.807090 -0.000000 0.000000 0.000001 -0.000000 0.000000 0.000001 -0.000001 0.000001 -0.000003 9.093274 7.538504 -1.865337 3.124197 1.480136 -1.284678 3.136776 1.474858 -1.263945 0.728167 11.771769 3.506736 6.906006 19.480700 -3.816392 -0.000001 -0.000000 -0.000000 -0.000001 -0.000000 -0.000000 -0.000001 -0.000000 -0.000000 0.863354 2.875892 -7.567501 -50.820412 3.482946 -53.809770 0.000481 -104.407740 0.000498 -0.646199 -3.189677 -15.370740 -6.141210 -11.690806 -6.761698 9.914135 42.595512 3.409863 0.000001 0.000002 0.000002 0.255320 3.378229 -45.814348 5.654097 5.847768 -88.067462 -0.000001 -0.000000 -0.000002 -0.461467 3.841593 -39.722690 6.450749 5.820355 -95.892857 -0.000001 0.000001 -0.000003 0.469728 4.966825 -39.799441 8.181034 5.368626 -113.502998 -0.000003 0.000003 0.000000 -3.762419 9.063692 -45.253825 5.342542 5.829018 -85.005331 0.000000 0.000000 -0.000000 -0.000000 -0.000000 -0.000001 3.937030 14.543568 -4.656811 -48.082093 26.964812 78.972485 -0.000059 107.157718 0.000050 -9.547686 17.015690 9.282237 -7.341094 13.749663 7.412335 9.855787 -44.489089 -3.903261 0.000000 -0.000002 0.000001 -0.124371 -2.384794 45.108861 4.500597 -4.654556 88.071171 0.000001 0.000001 0.000000 -0.761620 -2.932907 39.031061 5.133879 -4.632758 95.881635 -0.000001 0.000000 -0.000000 0.154764 -4.068814 39.122671 6.509724 -4.273605 113.462877 0.000000 -0.000001 -0.000001 -4.198872 -8.025512 44.637769 4.252924 -4.639648 85.014805 -0.000002 0.000001 0.000000 0.000000 -0.000002 0.000001 -0.000000 -0.000001 -0.000000 -0.000000 -0.000001 -0.000000 -0.000000 -0.000001 -0.000000 -0.000000 -0.000001 -0.000000 -0.000000 -0.000001 0.000001 -0.000000 0.000001 -0.000001 -0.000000 -0.000001 -0.000000 -0.000000 -0.000001 0.000001 -0.000000 0.000001 -0.000001 0.000001 -0.000002 0.000000 0.000001 -0.000002 0.000000 -0.000000 -0.000001 0.000000 
0.109973 70.930107 -0.154661 -6.277749 -46.708211 0.394015 0.000000 0.000001 0.000000 -31.374788 7.981334 15.836690 57.638908 -5.399978 4.163074 -22.812757 -8.050052 -14.924312 -0.000000 -0.000002 0.000000 -0.000000 -0.000002 0.000000 0.000001 0.000002 -0.000001 -24.945960 -9.487604 -29.215847 58.102001 -8.897307 -7.589944 -24.713303 -6.329816 21.782588 -0.000000 0.000001 -0.000000 -0.000000 0.000001 -0.000000 0.000002 -0.000001 -0.000000 8.805751 8.231197 -2.207068 3.590462 1.988617 -1.614734 3.602245 1.984434 -1.593469 1.274044 10.754601 2.693522 6.275625 17.988039 -3.563891 -0.000000 -0.000000 -0.000000 -0.000000 -0.000000 -0.000000 -0.000000 -0.000000 -0.000000 0.788831 2.666426 -7.211887 -49.654632 0.704919 -56.253305 0.000427 -102.244722 0.000429 -2.418250 -0.428773 -15.025532 -6.141212 -11.690807 -6.761693 9.914141 42.595519 3.409865 0.000002 -0.000002 -0.000000 0.255316 3.378227 -45.814348 5.654099 5.847767 -88.067462 -0.000002 -0.000000 -0.000002 -0.461469 3.841595 -39.722686 6.450752 5.820352 -95.892857 -0.000000 0.000001 0.000000 0.469727 4.966827 -39.799444 8.181040 5.368626 -113.502998 -0.000003 0.000002 0.000002 -3.762422 9.063690 -45.253818 5.342547 5.829019 -85.005331 0.000000 0.000003 0.000002 -0.000000 0.000002 -0.000001 4.427751 15.576516 -4.226200 -46.369352 25.864367 75.178308 -0.000010 108.408373 -0.000002 -10.196595 16.852068 9.256434 -7.341094 13.749664 7.412329 9.855793 -44.489089 -3.903255 0.000002 -0.000001 -0.000000 -0.124370 -2.384795 45.108861 4.500599 -4.654555 88.071171 -0.000004 -0.000000 0.000000 -0.761620 -2.932906 39.031061 5.133881 -4.632755 95.881635 0.000000 -0.000001 -0.000002 0.154764 -4.068812 39.122671 6.509724 -4.273603 113.462884 0.000001 0.000001 0.000001 -4.198874 -8.025511 44.637766 4.252916 -4.639647 85.014805 -0.000002 -0.000001 0.000002 -0.000001 0.000002 -0.000003 0.000000 -0.000001 0.000000 0.000000 -0.000001 0.000000 0.000000 -0.000001 0.000000 0.000000 -0.000001 0.000000 0.000000 -0.000001 0.000001 0.000000 -0.000003 0.000001 0.000000 -0.000001 0.000000 0.000000 -0.000001 0.000001 0.000000 -0.000003 0.000001 0.000001 -0.000000 -0.000000 0.000001 -0.000000 -0.000000 0.000000 0.000001 0.000000 
